<svg width="824" height="1191" viewBox="0 0 824 1191" fill="none" xmlns="http://www.w3.org/2000/svg">
<path fill-rule="evenodd" clip-rule="evenodd" d="M215.5 1142.5L333 1191L567.5 1146L760 1059.5L734 1003L786.5 919.5L824 686.5L785 502L734 681.5L608 422.5L626 387L522.5 105L452 0L319 193L220 416.5L127.5 260V582.5L51.5 633L54 720.5L0 770.5L128 1006L191 1053.5L215.5 1142.5ZM377 996.5L350 904.5L337 964L306 961L293.5 937L279.5 639.5L263.5 690L258.5 891L214.5 881.5L200.5 922L161 860L166.5 672.5L206 512L242.5 497.5L261 574.5L274.5 484.5L301.5 612L361 515L349.5 459.5L427.5 414.5L470 501L396.5 708V720.5L419.5 877L395.5 931L407.5 967.5L409 989.5L377 996.5ZM442 894L478 944L498 924.5L520.5 917.5L526 944L554.5 942L690 780.5L648 613L526 669L530 736.5L566.5 761L616 704.5V749L546.5 823L504.5 713.5L519.5 652L635 586L613.5 480L579.5 577.5L583.5 397L499.5 487L412.5 721.5L441 888L442 894Z" fill="white"/>
</svg>
